<svg width="119" height="30" viewBox="0 0 119 30" fill="none" xmlns="http://www.w3.org/2000/svg">
<g clip-path="url(#clip0_476_6003)">
<path d="M46.535 16.5912V6.51672C46.535 6.41114 46.4931 6.30989 46.4184 6.23524C46.3438 6.16059 46.2425 6.11865 46.1369 6.11865H43.7092C43.6037 6.11865 43.5024 6.16059 43.4277 6.23524C43.3531 6.30989 43.3112 6.41114 43.3112 6.51672V10.0453C43.3112 10.1508 43.2692 10.2521 43.1946 10.3267C43.1199 10.4014 43.0187 10.4433 42.9131 10.4433H39.8465C39.7405 10.4433 39.6387 10.4015 39.5633 10.327C39.4879 10.2525 39.4448 10.1513 39.4435 10.0453V6.51672C39.4435 6.41114 39.4016 6.30989 39.3269 6.23524C39.2523 6.16059 39.151 6.11865 39.0455 6.11865H36.6227C36.5171 6.11865 36.4159 6.16059 36.3412 6.23524C36.2665 6.30989 36.2246 6.41114 36.2246 6.51672V16.5912C36.2246 16.6435 36.2349 16.6953 36.2549 16.7436C36.2749 16.7918 36.3042 16.8357 36.3412 16.8727C36.3782 16.9097 36.422 16.939 36.4703 16.959C36.5186 16.979 36.5704 16.9893 36.6227 16.9893H39.0455C39.0977 16.9893 39.1495 16.979 39.1978 16.959C39.2461 16.939 39.29 16.9097 39.3269 16.8727C39.3639 16.8357 39.3932 16.7918 39.4132 16.7436C39.4332 16.6953 39.4435 16.6435 39.4435 16.5912V13.3428C39.4448 13.2368 39.4879 13.1355 39.5633 13.061C39.6387 12.9865 39.7405 12.9447 39.8465 12.9447H42.9131C43.0187 12.9447 43.1199 12.9867 43.1946 13.0613C43.2692 13.136 43.3112 13.2372 43.3112 13.3428V16.5912C43.3112 16.6435 43.3215 16.6953 43.3415 16.7436C43.3615 16.7918 43.3908 16.8357 43.4277 16.8727C43.4647 16.9097 43.5086 16.939 43.5569 16.959C43.6052 16.979 43.657 16.9893 43.7092 16.9893H46.1369C46.1892 16.9893 46.241 16.979 46.2893 16.959C46.3376 16.939 46.3814 16.9097 46.4184 16.8727C46.4554 16.8357 46.4847 16.7918 46.5047 16.7436C46.5247 16.6953 46.535 16.6435 46.535 16.5912Z" fill="#F9FAFA"/>
<path d="M54.7514 6.11845H52.1812C52.07 6.11764 51.9611 6.14991 51.8684 6.21117C51.7756 6.27243 51.7032 6.3599 51.6603 6.46246L47.3159 16.65C47.2993 16.6871 47.2924 16.7279 47.2958 16.7685C47.2992 16.809 47.3128 16.8481 47.3354 16.8819C47.3579 16.9158 47.3887 16.9434 47.4249 16.9621C47.461 16.9809 47.5013 16.9901 47.542 16.9891H50.3186C50.3679 16.9891 50.4159 16.9741 50.4564 16.946C50.4968 16.9178 50.5276 16.878 50.5447 16.8318L51.1393 15.2346H55.5328L56.1078 16.8122C56.1234 16.8597 56.1537 16.901 56.1944 16.9301C56.235 16.9593 56.2838 16.9748 56.3338 16.9743H59.2481C59.2883 16.9741 59.3279 16.9641 59.3633 16.945C59.3988 16.9259 59.429 16.8984 59.4513 16.8649C59.4736 16.8314 59.4874 16.793 59.4914 16.7529C59.4953 16.7129 59.4894 16.6725 59.4741 16.6352L55.2772 6.45263C55.2315 6.35191 55.1574 6.26669 55.064 6.20735C54.9706 6.14801 54.862 6.11712 54.7514 6.11845ZM52.0387 12.8954L53.3754 9.33738L54.6826 12.8954H52.0387Z" fill="#F9FAFA"/>
<path d="M68.8843 12.2567C68.5243 11.7064 68.0121 11.2727 67.41 11.0084C66.8007 10.7447 66.1692 10.5359 65.5229 10.3843C65.0006 10.2936 64.4941 10.1281 64.0191 9.89284C63.8891 9.83811 63.7768 9.74859 63.6944 9.63414C63.612 9.51969 63.5628 9.38475 63.5522 9.24414C63.5522 8.84608 63.852 8.64459 64.4515 8.64459C65.5472 8.69289 66.6147 9.00657 67.5623 9.55866C67.6286 9.59315 67.7012 9.61403 67.7756 9.62007C67.8501 9.62611 67.925 9.61719 67.996 9.59383C68.067 9.57048 68.1326 9.53316 68.1889 9.48408C68.2453 9.435 68.2912 9.37514 68.3241 9.30803L69.0317 7.83371C69.0955 7.7073 69.1081 7.56119 69.0669 7.42574C69.0257 7.29028 68.9339 7.17591 68.8106 7.10638C67.5542 6.42668 66.1453 6.07826 64.7169 6.09402C63.9761 6.08883 63.2393 6.20334 62.5349 6.43311C61.8701 6.64753 61.2769 7.04018 60.8198 7.56833C60.4107 8.08419 60.1982 8.72864 60.2202 9.38666C60.2037 9.95786 60.3716 10.5192 60.6992 10.9874C61.0267 11.4557 61.4963 11.806 62.0386 11.9864C62.6643 12.2329 63.3043 12.4413 63.9552 12.6105C64.4058 12.7138 64.8478 12.8518 65.2772 13.0233C65.69 13.1707 65.8964 13.4017 65.8964 13.7162C65.8964 14.2077 65.5229 14.4485 64.7808 14.4485C64.1718 14.4264 63.5706 14.3035 63.0018 14.0848C62.3825 13.8613 61.7893 13.5713 61.2326 13.2199C61.1676 13.1797 61.095 13.1535 61.0194 13.1429C60.9437 13.1323 60.8667 13.1376 60.7932 13.1584C60.7197 13.1792 60.6514 13.2151 60.5925 13.2637C60.5336 13.3124 60.4855 13.3728 60.4512 13.441L59.7534 14.7679C59.6896 14.8904 59.6728 15.0321 59.7063 15.1661C59.7398 15.3001 59.8213 15.4172 59.9352 15.4952C61.3569 16.4537 63.0318 16.967 64.7464 16.9696C65.4747 16.9732 66.1992 16.8638 66.894 16.6452C67.5482 16.4429 68.1357 16.0676 68.5944 15.5591C69.032 15.0283 69.2578 14.3544 69.2283 13.6671C69.2454 13.1743 69.1264 12.6863 68.8843 12.2567Z" fill="#F9FAFA"/>
<path d="M80.5623 16.5912V6.51672C80.5623 6.41114 80.5204 6.30989 80.4458 6.23524C80.3711 6.16059 80.2699 6.11865 80.1643 6.11865H77.7366C77.631 6.11865 77.5297 6.16059 77.4551 6.23524C77.3804 6.30989 77.3385 6.41114 77.3385 6.51672V10.0453C77.3385 10.1508 77.2966 10.2521 77.2219 10.3267C77.1473 10.4014 77.046 10.4433 76.9404 10.4433H73.8739C73.7683 10.4433 73.667 10.4014 73.5924 10.3267C73.5177 10.2521 73.4758 10.1508 73.4758 10.0453V6.51672C73.4745 6.4107 73.4315 6.30945 73.356 6.23494C73.2806 6.16043 73.1788 6.11864 73.0728 6.11865H70.65C70.5444 6.11865 70.4432 6.16059 70.3685 6.23524C70.2939 6.30989 70.252 6.41114 70.252 6.51672V16.5912C70.252 16.6435 70.2623 16.6953 70.2823 16.7436C70.3023 16.7918 70.3316 16.8357 70.3685 16.8727C70.4055 16.9097 70.4494 16.939 70.4977 16.959C70.546 16.979 70.5977 16.9893 70.65 16.9893H73.0728C73.1788 16.9893 73.2806 16.9475 73.356 16.873C73.4315 16.7985 73.4745 16.6972 73.4758 16.5912V13.3428C73.4758 13.2372 73.5177 13.136 73.5924 13.0613C73.667 12.9867 73.7683 12.9447 73.8739 12.9447H76.9404C77.046 12.9447 77.1473 12.9867 77.2219 13.0613C77.2966 13.136 77.3385 13.2372 77.3385 13.3428V16.5912C77.3385 16.6435 77.3488 16.6953 77.3688 16.7436C77.3888 16.7918 77.4181 16.8357 77.4551 16.8727C77.4921 16.9097 77.5359 16.939 77.5842 16.959C77.6325 16.979 77.6843 16.9893 77.7366 16.9893H80.1643C80.2166 16.9893 80.2683 16.979 80.3166 16.959C80.3649 16.939 80.4088 16.9097 80.4458 16.8727C80.4827 16.8357 80.512 16.7918 80.532 16.7436C80.5521 16.6953 80.5623 16.6435 80.5623 16.5912Z" fill="#F9FAFA"/>
<path d="M88.4599 11.7946L85.8405 6.38879C85.7998 6.31013 85.7386 6.24395 85.6633 6.19723C85.588 6.15052 85.5015 6.12501 85.413 6.12342H82.7297C82.5994 6.12342 82.4744 6.17519 82.3822 6.26736C82.2901 6.35952 82.2383 6.48452 82.2383 6.61486V16.5124C82.2383 16.6428 82.2901 16.7678 82.3822 16.8599C82.4744 16.9521 82.5994 17.0039 82.7297 17.0039H84.6119C84.7423 17.0039 84.8673 16.9521 84.9594 16.8599C85.0516 16.7678 85.1034 16.6428 85.1034 16.5124V11.3916C85.1019 11.348 85.1158 11.3053 85.1426 11.2708C85.1694 11.2364 85.2074 11.2124 85.25 11.2031C85.2927 11.1937 85.3372 11.1996 85.376 11.2197C85.4147 11.2398 85.4452 11.2728 85.4621 11.313L87.5409 15.8097C87.5557 15.8416 87.5793 15.8687 87.6089 15.8879C87.6384 15.907 87.6728 15.9174 87.708 15.9178H89.5558C89.5917 15.9177 89.6269 15.9075 89.6573 15.8884C89.6877 15.8693 89.7122 15.842 89.7278 15.8097L91.7771 11.3032C91.7941 11.263 91.8245 11.23 91.8633 11.2099C91.902 11.1898 91.9466 11.1839 91.9892 11.1933C92.0318 11.2026 92.0698 11.2266 92.0966 11.261C92.1234 11.2955 92.1373 11.3382 92.1359 11.3818V16.5124C92.1359 16.6428 92.1876 16.7678 92.2798 16.8599C92.372 16.9521 92.497 17.0039 92.6273 17.0039H94.5193C94.6497 17.0039 94.7747 16.9521 94.8668 16.8599C94.959 16.7678 95.0108 16.6428 95.0108 16.5124V6.5952C95.0108 6.46486 94.959 6.33986 94.8668 6.2477C94.7747 6.15554 94.6497 6.10376 94.5193 6.10376H91.8312C91.7414 6.10808 91.6545 6.13694 91.58 6.18719C91.5055 6.23745 91.4462 6.30718 91.4085 6.38879L88.8088 11.7946C88.7953 11.83 88.7714 11.8604 88.7403 11.8818C88.7091 11.9033 88.6722 11.9148 88.6344 11.9148C88.5965 11.9148 88.5596 11.9033 88.5285 11.8818C88.4973 11.8604 88.4734 11.83 88.4599 11.7946Z" fill="#F9FAFA"/>
<path d="M100.126 6.38875L95.8653 16.3846C95.8368 16.4512 95.8253 16.5238 95.8318 16.596C95.8384 16.6681 95.8627 16.7375 95.9026 16.7979C95.9426 16.8583 95.9969 16.9078 96.0607 16.9421C96.1246 16.9763 96.1959 16.9941 96.2683 16.994H98.6174C98.7064 16.9943 98.7934 16.967 98.8664 16.916C98.9394 16.865 98.9949 16.7927 99.0253 16.709L99.5708 15.2347H103.969L104.49 16.709C104.522 16.7932 104.578 16.866 104.652 16.9177C104.725 16.9694 104.813 16.9977 104.903 16.9989H107.39C107.462 16.9995 107.533 16.9822 107.597 16.9486C107.661 16.915 107.715 16.8661 107.756 16.8062C107.796 16.7463 107.821 16.6774 107.828 16.6056C107.836 16.5337 107.825 16.4612 107.797 16.3944L103.694 6.38875C103.662 6.30856 103.606 6.23994 103.534 6.19176C103.462 6.14358 103.377 6.11804 103.291 6.11846H100.549C100.459 6.11398 100.37 6.13761 100.294 6.18606C100.218 6.2345 100.16 6.30535 100.126 6.38875ZM100.475 12.9003L101.807 9.33738L103.114 12.8954L100.475 12.9003Z" fill="#F9FAFA"/>
<path d="M118.333 16.3747L116.608 13.5981C116.595 13.5776 116.586 13.5546 116.582 13.5305C116.577 13.5064 116.578 13.4816 116.583 13.4578C116.589 13.4339 116.599 13.4114 116.614 13.3916C116.628 13.3718 116.646 13.3551 116.667 13.3426C117.781 12.6414 118.338 11.5193 118.338 9.97619C118.338 8.63293 117.921 7.65005 117.085 7.02756C116.104 6.36708 114.935 6.04288 113.753 6.10366H109.099C108.994 6.10366 108.892 6.14559 108.818 6.22025C108.743 6.2949 108.701 6.39615 108.701 6.50172V16.5861C108.701 16.6921 108.743 16.7938 108.817 16.8693C108.892 16.9447 108.993 16.9877 109.099 16.989H111.522C111.628 16.9877 111.729 16.9447 111.804 16.8693C111.878 16.7938 111.92 16.6921 111.92 16.5861V14.2517C111.921 14.2017 111.942 14.1542 111.978 14.1194C112.014 14.0845 112.062 14.065 112.112 14.065H113.512C113.548 14.0646 113.583 14.0741 113.613 14.0923C113.643 14.1105 113.668 14.1368 113.684 14.1682L114.967 16.7679C114.999 16.8355 115.05 16.8927 115.114 16.9327C115.177 16.9727 115.251 16.9939 115.326 16.9939H118.014C118.084 16.9904 118.153 16.9684 118.212 16.9302C118.271 16.892 118.319 16.8389 118.352 16.7762C118.384 16.7135 118.399 16.6435 118.396 16.573C118.393 16.5026 118.371 16.4342 118.333 16.3747ZM113.522 11.5783H112.077C112.027 11.577 111.979 11.5564 111.943 11.5208C111.908 11.4851 111.887 11.4371 111.886 11.3866V8.81148C111.887 8.76151 111.908 8.71401 111.944 8.67913C111.979 8.64424 112.027 8.62472 112.077 8.62474H113.738C114.554 8.62474 115.046 8.93434 115.213 9.55847C115.263 9.80642 115.257 10.0625 115.194 10.3077C115.132 10.5529 115.016 10.781 114.853 10.975C114.691 11.169 114.487 11.324 114.257 11.4284C114.026 11.5328 113.775 11.5841 113.522 11.5783Z" fill="#F9FAFA"/>
<path d="M39.7586 22.6554C39.6543 22.7418 39.5341 22.8069 39.4048 22.847C39.2864 22.8888 39.1618 22.9104 39.0362 22.9109C38.8659 22.917 38.6968 22.8798 38.5448 22.8028C38.3992 22.7302 38.2704 22.6281 38.1663 22.503C38.0599 22.3743 37.9767 22.2279 37.9206 22.0706C37.8634 21.913 37.8335 21.7468 37.8322 21.5791C37.8315 21.4125 37.8564 21.2468 37.9059 21.0877C37.9572 20.9337 38.0336 20.7892 38.1319 20.6601C38.2305 20.5329 38.3543 20.4275 38.4956 20.3505C38.6475 20.272 38.8161 20.2316 38.9871 20.2326C39.1086 20.2337 39.2293 20.2519 39.3458 20.2867C39.4724 20.3213 39.5899 20.3834 39.6898 20.4685C39.8016 20.5639 39.8906 20.6831 39.9503 20.8174L40.4073 20.5127C40.2842 20.2744 40.097 20.0753 39.8667 19.9377C39.6079 19.7809 39.3092 19.7024 39.0067 19.7117C38.7584 19.7065 38.5121 19.7562 38.2852 19.8573C38.0584 19.9584 37.8567 20.1084 37.6946 20.2965C37.385 20.6393 37.2103 21.0829 37.2031 21.5447C37.2042 21.7799 37.2475 22.0129 37.3309 22.2328C37.4181 22.4544 37.5409 22.6602 37.6946 22.8421C37.8488 23.022 38.0377 23.1691 38.2499 23.2746C38.4692 23.3857 38.7118 23.443 38.9576 23.4417C39.1585 23.4401 39.3578 23.4052 39.5473 23.3385C39.743 23.2776 39.9249 23.1791 40.083 23.0485C40.2597 22.9432 40.4028 22.7898 40.4958 22.6062L40.0043 22.331C39.9487 22.4568 39.8646 22.5678 39.7586 22.6554Z" fill="#F9FAFA"/>
<path d="M46.4119 21.7757C46.5228 21.6681 46.6084 21.5371 46.6625 21.3923C46.7215 21.2455 46.7515 21.0886 46.751 20.9304C46.7566 20.7819 46.735 20.6337 46.6871 20.493C46.6299 20.3521 46.5484 20.2224 46.4463 20.1097C46.3448 19.9965 46.2231 19.9032 46.0875 19.8345C45.9454 19.7646 45.7888 19.7293 45.6305 19.7313H44.0137V23.4072H44.5936V22.1148H45.4487L46.2448 23.3925H46.8935L46.0335 21.9968C46.1747 21.9525 46.304 21.8769 46.4119 21.7757ZM45.891 21.525C45.808 21.5851 45.7084 21.6177 45.6059 21.6184H44.5936V20.2473H45.5764C45.6789 20.248 45.7785 20.2806 45.8615 20.3407C45.9531 20.4031 46.0275 20.4876 46.0777 20.5864C46.1341 20.6922 46.1628 20.8105 46.1613 20.9304C46.162 21.0491 46.1368 21.1665 46.0875 21.2744C46.0432 21.3726 45.9757 21.4586 45.891 21.525Z" fill="#F9FAFA"/>
<path d="M53.2081 20.2964C53.0547 20.1169 52.8655 19.9713 52.6527 19.8689C52.4298 19.7588 52.1839 19.7033 51.9352 19.7067C51.6941 19.704 51.4555 19.7561 51.2374 19.859C51.0249 19.9601 50.8332 20.1001 50.6722 20.2718C50.5143 20.4479 50.3895 20.651 50.3037 20.8714C50.211 21.0923 50.1642 21.3297 50.1661 21.5692C50.1672 21.8044 50.2104 22.0374 50.2938 22.2573C50.3774 22.4766 50.4988 22.6795 50.6526 22.8568C50.8073 23.0338 50.9962 23.1775 51.2079 23.2795C51.4321 23.3856 51.6774 23.4393 51.9254 23.4367C52.1639 23.4369 52.3997 23.3867 52.6174 23.2893C52.8351 23.1919 53.0297 23.0495 53.1884 22.8716C53.5093 22.5161 53.6848 22.053 53.6799 21.5742C53.6789 21.3422 53.6356 21.1124 53.5521 20.896C53.4718 20.6782 53.3556 20.4756 53.2081 20.2964ZM53.0213 22.0558C52.9699 22.2112 52.8935 22.3573 52.7953 22.4882C52.696 22.6234 52.5655 22.7324 52.4148 22.806C52.2642 22.8796 52.0979 22.9156 51.9303 22.9109C51.7603 22.9144 51.5918 22.8773 51.4389 22.8028C51.2963 22.7298 51.1708 22.6277 51.0703 22.503C50.9652 22.3749 50.8852 22.2282 50.8344 22.0705C50.7807 21.9122 50.7525 21.7463 50.7509 21.5791C50.7517 21.4118 50.78 21.2458 50.8344 21.0876C50.8857 20.9336 50.9621 20.7892 51.0605 20.6601C51.1607 20.5339 51.2863 20.4301 51.4291 20.3554C51.5815 20.2785 51.7498 20.2384 51.9205 20.2384C52.0912 20.2384 52.2595 20.2785 52.4119 20.3554C52.5543 20.4265 52.6799 20.527 52.7805 20.6503C52.8847 20.7789 52.9646 20.9255 53.0164 21.0827C53.0694 21.2411 53.0959 21.4071 53.095 21.5742C53.0941 21.7374 53.0693 21.8997 53.0213 22.0558Z" fill="#F9FAFA"/>
<path d="M59.6314 20.1097C59.5281 19.9964 59.4048 19.9031 59.2677 19.8345C59.1256 19.7646 58.969 19.7293 58.8107 19.7313H57.2676V23.4072H57.8475V22.1148H58.8304C59.0367 22.1182 59.2391 22.0581 59.4103 21.9428C59.5779 21.8318 59.7121 21.6771 59.7985 21.4955C59.8901 21.3161 59.9373 21.1172 59.9361 20.9156C59.9379 20.7657 59.9095 20.617 59.8525 20.4783C59.8018 20.343 59.7269 20.2181 59.6314 20.1097ZM59.2923 21.2793C59.2492 21.3769 59.1815 21.4616 59.0957 21.525C59.0126 21.5884 58.9103 21.6214 58.8058 21.6184H57.8229V20.2473H58.7517C58.8547 20.244 58.9562 20.2733 59.0417 20.3308C59.1305 20.3929 59.203 20.4755 59.253 20.5716C59.31 20.6825 59.3387 20.8058 59.3365 20.9304C59.3453 21.0485 59.3303 21.1671 59.2923 21.2793Z" fill="#F9FAFA"/>
<path d="M64.0545 21.7709H65.691V21.2893H64.0545V20.2475H65.9465V19.7314H63.4746V23.4074H65.9908V22.8963H64.0545V21.7709Z" fill="#F9FAFA"/>
<path d="M71.8346 19.7314L70.8173 21.1763L69.8049 19.7314H69.1562L70.4831 21.5989L69.2005 23.4074H69.8443L70.8173 22.0166L71.7904 23.4074H72.4341L71.1515 21.5989L72.4735 19.7314H71.8346Z" fill="#F9FAFA"/>
<path d="M80.6444 19.7314H80.0645V23.4074H82.615V22.8963H80.6444V19.7314Z" fill="#F9FAFA"/>
<path d="M86.6463 19.7314H86.0664V23.4074H86.6463V19.7314Z" fill="#F9FAFA"/>
<path d="M92.2872 21.9822L91.0684 19.7314H90.4492V23.4074H91.0291V20.788L92.1152 22.7784H92.4543L93.5404 20.788V23.4074H94.1252V19.7314H93.5011L92.2872 21.9822Z" fill="#F9FAFA"/>
<path d="M98.5096 19.7314H97.9297V23.4074H98.5096V19.7314Z" fill="#F9FAFA"/>
<path d="M101.979 20.2475H103.202V23.4074H103.787V20.2475H105.011V19.7314H101.979V20.2475Z" fill="#F9FAFA"/>
<path d="M109.06 21.7709H110.702V21.2893H109.06V20.2475H110.952V19.7314H108.48V23.4074H111.002V22.8963H109.06V21.7709Z" fill="#F9FAFA"/>
<path d="M116.879 19.977C116.58 19.8077 116.24 19.7228 115.896 19.7313H114.594V23.4073H115.896C116.227 23.4161 116.554 23.3381 116.845 23.1812C117.105 23.0293 117.317 22.8058 117.454 22.5374C117.609 22.2336 117.685 21.8955 117.675 21.5545C117.671 21.2371 117.595 20.9248 117.454 20.6405C117.329 20.3694 117.13 20.1393 116.879 19.977ZM116.943 22.2425C116.858 22.4431 116.716 22.6141 116.535 22.734C116.34 22.8572 116.112 22.9189 115.881 22.9109H115.159V20.2473H115.881C116.109 20.2391 116.334 20.2972 116.53 20.4144C116.714 20.5331 116.858 20.7043 116.943 20.9058C117.037 21.1204 117.085 21.3522 117.085 21.5865C117.085 21.8208 117.037 22.0525 116.943 22.2671V22.2425Z" fill="#F9FAFA"/>
<path d="M7.44034 21.5154L7.06685 22.1543H6.99805C7.16528 22.3282 7.3425 22.4923 7.5288 22.6457L7.9711 21.879H8.12344L7.91704 21.5154H7.44034Z" fill="#F9FAFA"/>
<path d="M17.2497 14.5762C15.7065 14.4091 14.4632 14.3403 14.2273 11.9568C14.1811 11.197 13.9716 10.4561 13.613 9.78466C13.3623 9.35744 13.0639 8.9601 12.7235 8.60029C12.4617 8.31936 12.1662 8.07177 11.8438 7.86313C11.1968 7.40752 10.444 7.12499 9.65693 7.04243C9.57355 7.03509 9.48968 7.03509 9.4063 7.04243C9.27261 7.02527 9.13808 7.01543 9.00332 7.01294C7.42115 7.03012 5.90346 7.64245 4.75237 8.72806C3.17976 10.3007 2.63427 12.6301 3.06673 15.1168H3.12571L3.568 14.3354L3.24856 13.7604L3.79406 12.7775H4.91454L5.43547 13.7604L5.33718 13.9275L6.02028 15.0971H6.80167L6.99824 15.446L7.06705 15.333H8.15313L8.70845 16.2815L8.15313 17.2005H7.06705L7.03756 17.1562L6.80167 17.5789H6.31023L6.33972 17.6329L5.77948 18.5814H4.69831L4.15281 17.6428L4.69831 16.709H4.85066L4.64425 16.3454H4.15281L3.77932 16.9892H3.568C4.07257 18.3487 4.79273 19.6181 5.70085 20.7487L5.98097 20.2572H6.38886L6.83607 19.4758L6.51172 18.9205L7.05722 17.972H8.15804L8.69862 18.9205L8.60525 19.0876L9.28835 20.2572H10.0747L10.2712 20.6061L10.34 20.4931H11.4261L11.9864 21.4416L11.4261 22.3901H10.3204V22.3508L10.0845 22.7685H9.59304L9.62253 22.8225L9.06229 23.771H8.96891C9.53887 24.1615 10.1386 24.5065 10.7627 24.803L11.028 24.3116L10.7086 23.7514L11.2492 22.8029H12.35L12.8955 23.7514L12.7972 23.9184L13.4803 25.0881H14.2519L14.4435 25.4222L14.2224 25.8154C14.3735 25.8407 14.5263 25.8538 14.6794 25.8547C15.0828 25.8989 15.4899 25.8989 15.8933 25.8547C17.473 25.8065 18.9788 25.1744 20.1197 24.0806C20.6457 23.5778 21.0682 22.9767 21.363 22.3114C21.6627 21.6057 21.8181 20.8471 21.82 20.0803V19.9525C21.8273 19.8134 21.8273 19.674 21.82 19.5348C21.7931 18.2934 21.3139 17.1045 20.4723 16.1914C19.6307 15.2784 18.4848 14.704 17.2497 14.5762ZM7.30294 10.5513C7.11796 10.6645 6.95717 10.8132 6.82981 10.9887C6.70245 11.1642 6.61103 11.3632 6.5608 11.5742C6.51057 11.7852 6.50251 12.004 6.5371 12.2181C6.57169 12.4322 6.64824 12.6373 6.76235 12.8217C6.7964 12.8726 6.81977 12.9298 6.83104 12.99C6.84231 13.0502 6.84125 13.112 6.82793 13.1717C6.8146 13.2314 6.78929 13.2878 6.75352 13.3375C6.71775 13.3872 6.67227 13.4291 6.61984 13.4606C6.53099 13.5152 6.42631 13.538 6.32281 13.5255C6.21932 13.5131 6.12309 13.4659 6.04977 13.3918C6.02028 13.3672 6.01045 13.3378 5.98097 13.3083C5.62812 12.7244 5.51798 12.0255 5.67414 11.3614C5.83029 10.6972 6.24033 10.1207 6.81641 9.75517C6.92199 9.69 7.04912 9.66944 7.16986 9.69801C7.29059 9.72658 7.39503 9.80194 7.4602 9.90752C7.52537 10.0131 7.54593 10.1402 7.51736 10.261C7.48879 10.3817 7.41342 10.4861 7.30785 10.5513H7.30294ZM16.4683 17.2938C15.7978 17.3598 15.121 17.2749 14.4876 17.0454C13.8542 16.8158 13.2801 16.4475 12.8075 15.9674C12.3349 15.4872 11.9757 14.9074 11.7562 14.2704C11.5368 13.6335 11.4626 12.9554 11.5391 12.2861C11.5622 12.1397 11.64 12.0076 11.7568 11.9163C11.8735 11.8251 12.0206 11.7816 12.1682 11.7946C12.3123 11.8165 12.4429 11.8919 12.534 12.0057C12.6251 12.1196 12.6699 12.2635 12.6596 12.4089C12.5907 12.9182 12.6415 13.4365 12.8078 13.9228C12.9742 14.409 13.2515 14.8498 13.6179 15.2101C13.9742 15.5633 14.4033 15.8342 14.8753 16.004C15.3473 16.1738 15.8508 16.2383 16.3503 16.193C16.4236 16.1859 16.4975 16.1933 16.5679 16.2148C16.6383 16.2363 16.7038 16.2714 16.7606 16.3182C16.8174 16.3649 16.8644 16.4224 16.899 16.4874C16.9336 16.5524 16.9551 16.6235 16.9622 16.6967C16.9693 16.77 16.9619 16.8439 16.9404 16.9143C16.9189 16.9847 16.8838 17.0502 16.837 17.107C16.7902 17.1638 16.7327 17.2108 16.6678 17.2454C16.6028 17.28 16.5317 17.3015 16.4584 17.3086L16.4683 17.2938ZM19.1171 22.0018C19.012 22.1469 18.8899 22.2788 18.7535 22.395C18.6605 22.4613 18.5473 22.4931 18.4335 22.485C18.3196 22.477 18.212 22.4295 18.1293 22.3508L18.0999 22.3114C18.0314 22.2239 17.998 22.114 18.0062 22.0031C18.0144 21.8923 18.0635 21.7885 18.1441 21.7119L18.1834 21.6677C18.3522 21.5307 18.4922 21.3615 18.5951 21.17C18.698 20.9785 18.7619 20.7685 18.783 20.5521C18.8339 20.1696 18.7391 19.7819 18.5176 19.466C18.4949 19.4218 18.4668 19.3805 18.434 19.3431C18.3585 19.2438 18.3236 19.1195 18.3364 18.9954C18.3491 18.8713 18.4087 18.7566 18.5028 18.6748C18.5505 18.6377 18.605 18.6105 18.6632 18.5947C18.7215 18.5788 18.7823 18.5746 18.8421 18.5824C18.902 18.5902 18.9597 18.6097 19.012 18.6399C19.0642 18.6701 19.11 18.7104 19.1466 18.7583C19.3393 19.0068 19.4889 19.2859 19.5889 19.5839C19.6408 19.7124 19.6707 19.8486 19.6774 19.9869C19.733 20.3433 19.7117 20.7074 19.6151 21.055C19.5185 21.4025 19.3487 21.7253 19.1171 22.0018Z" fill="#F9FAFA"/>
<path d="M24.4253 12.6301C23.8107 12.3836 23.1823 12.1736 22.543 12.001C20.5232 11.431 19.2995 11.0968 18.0022 6.59521C17.1126 3.54337 14.7734 2.62438 12.96 3.05685C12.1614 3.20657 11.4114 3.54893 10.7751 4.05421C10.1387 4.55949 9.63536 5.21242 9.30859 5.95634C9.45111 5.95634 9.60346 5.95634 9.7558 5.95634C10.0746 5.31038 10.5386 4.74705 11.1116 4.3105C11.6846 3.87395 12.3509 3.57605 13.0583 3.44017C13.3134 3.37427 13.5762 3.34287 13.8397 3.3468C15.314 3.3468 16.9161 4.32968 17.6139 6.70333C18.9801 11.3966 20.3561 11.7897 22.4349 12.3745C22.9755 12.5269 23.5898 12.7087 24.2729 12.9692C24.8223 13.1518 25.3024 13.4985 25.6486 13.9624C25.9949 14.4264 26.1905 14.9854 26.2092 15.564C26.2287 16.1604 26.0942 16.7518 25.8188 17.2811C25.5433 17.8105 25.1362 18.26 24.6366 18.5863C24.0871 18.9462 23.4781 19.2058 22.8379 19.353C22.8529 19.4869 22.8529 19.622 22.8379 19.7559C23.5514 19.6012 24.2308 19.3182 24.843 18.9205C25.4002 18.5564 25.8543 18.055 26.1616 17.4646C26.4688 16.8741 26.6189 16.2145 26.5974 15.5492C26.5755 14.8994 26.3557 14.2718 25.9676 13.7501C25.5795 13.2285 25.0414 12.8378 24.4253 12.6301Z" fill="#F9FAFA"/>
<path d="M17.3879 9.46025C17.4568 9.40701 17.5386 9.37305 17.625 9.36182C17.7113 9.3506 17.7991 9.36252 17.8793 9.39636L17.9629 9.21453C17.8499 9.16528 17.7259 9.14662 17.6034 9.16043C17.481 9.17423 17.3643 9.22 17.265 9.29316C17.0591 9.44635 16.9049 9.65886 16.8232 9.90219C16.7415 10.1455 16.7362 10.408 16.808 10.6544C16.9829 11.3675 17.3397 12.0231 17.8436 12.5571C18.3474 13.0912 18.9812 13.4854 19.6829 13.7014C19.7643 13.7251 19.8488 13.7367 19.9336 13.7358C20.0684 13.7393 20.2023 13.7118 20.325 13.6556C20.4477 13.5994 20.5558 13.5159 20.6412 13.4114C20.7361 13.3004 20.7937 13.1625 20.8061 13.017C20.8184 12.8716 20.7848 12.7259 20.71 12.6005C20.6812 12.5522 20.6466 12.5077 20.6068 12.4679L20.4643 12.6104C20.4915 12.6381 20.5146 12.6696 20.5331 12.7037C20.5878 12.793 20.6125 12.8974 20.6036 13.0017C20.5948 13.1061 20.5529 13.2048 20.484 13.2836C20.4 13.3879 20.2871 13.465 20.1594 13.5053C20.0318 13.5455 19.895 13.547 19.7665 13.5097C19.098 13.3036 18.4944 12.9277 18.0146 12.4186C17.5348 11.9096 17.1953 11.2848 17.0292 10.6053C16.9651 10.4006 16.9651 10.1813 17.0292 9.97659C17.0933 9.77192 17.2185 9.59176 17.3879 9.46025Z" fill="#F9FAFA"/>
<path d="M4.64453 16.3308H5.29815L6.02056 15.0776H5.36695L4.64453 16.3308Z" fill="#F9FAFA"/>
<path d="M4.85156 16.6943L5.36757 17.5838H6.31605L5.7853 16.6943H4.85156Z" fill="#F9FAFA"/>
<path d="M7.03749 17.1709L7.52402 16.3305L6.99818 15.4263L6.52148 16.2617L7.03749 17.1709Z" fill="#F9FAFA"/>
<path d="M3.79336 15.0776H3.125L3.84742 16.3308H4.16685L4.34868 16.0261L3.79336 15.0776Z" fill="#F9FAFA"/>
<path d="M4.89524 14.6892L5.33754 13.9078L5.29822 13.8242H3.84848L3.56836 14.296L3.79442 14.6892H4.89524Z" fill="#F9FAFA"/>
<path d="M7.91797 21.5154H8.57158L9.294 20.2622H8.64038L7.91797 21.5154Z" fill="#F9FAFA"/>
<path d="M8.12305 21.8789L8.63906 22.7684H9.58754L9.05678 21.8789H8.12305Z" fill="#F9FAFA"/>
<path d="M10.3099 22.3508L10.8014 21.5153L10.2706 20.6111L9.79883 21.4465L10.3099 22.3508Z" fill="#F9FAFA"/>
<path d="M7.06679 20.2622H6.39844L7.12085 21.5154H7.44029L7.62212 21.2107L7.06679 20.2622Z" fill="#F9FAFA"/>
<path d="M8.16767 19.8691L8.61488 19.0926L8.57065 19.009H7.12091L6.8457 19.4808L7.06685 19.8691H8.16767Z" fill="#F9FAFA"/>
<path d="M12.5957 25.5008L13.1559 25.6532L13.4754 25.1077H12.8218L12.5957 25.5008Z" fill="#F9FAFA"/>
<path d="M11.3036 23.8545L11.0234 24.3312L11.2446 24.7194H12.3454L12.7926 23.938L12.7533 23.8545H11.3036Z" fill="#F9FAFA"/>
<path d="M22.6063 1.69533C22.0677 1.15366 21.4265 0.724741 20.7203 0.433634C20.014 0.142527 19.2569 -0.00493173 18.493 -0.000130562H11.0526C10.2919 -0.00313948 9.5382 0.145214 8.8354 0.436293C8.13259 0.727371 7.49471 1.15536 6.9589 1.69533L1.69559 6.95865C1.15562 7.49445 0.727629 8.13233 0.43655 8.83514C0.145472 9.53795 -0.00288211 10.2916 0.000126813 11.0523V18.4927C-0.00494881 19.2566 0.142385 20.0139 0.433507 20.7202C0.72463 21.4265 1.15369 22.0676 1.69559 22.6061L6.9589 27.8497C7.49537 28.3888 8.13337 28.8162 8.83603 29.1072C9.53868 29.3983 10.2921 29.5471 11.0526 29.5452H18.493C19.2567 29.5489 20.0136 29.4009 20.7197 29.1099C21.4258 28.8188 22.067 28.3905 22.6063 27.8497L27.85 22.6061C28.3886 22.0693 28.8158 21.4312 29.1067 20.7286C29.3977 20.026 29.5468 19.2728 29.5454 18.5124V11.0523C29.5474 10.2918 29.3985 9.53843 29.1075 8.83577C28.8165 8.13311 28.3891 7.49511 27.85 6.95865L22.6063 1.69533ZM28.0564 18.4927C28.0581 19.0578 27.9478 19.6175 27.7318 20.1397C27.5159 20.6618 27.1986 21.136 26.7983 21.5347L21.535 26.798C21.1365 27.199 20.6625 27.5171 20.1403 27.7339C19.6182 27.9506 19.0583 28.0618 18.493 28.061H11.0526C10.4866 28.0614 9.92608 27.95 9.40322 27.7333C8.88036 27.5166 8.40543 27.1987 8.00567 26.798L2.74727 21.5347C2.34364 21.1377 2.02318 20.6642 1.80464 20.1419C1.5861 19.6195 1.47384 19.0589 1.47444 18.4927V11.0523C1.473 10.4862 1.58389 9.92535 1.80068 9.40234C2.01748 8.87933 2.33588 8.40452 2.73744 8.00541L7.99584 2.74701C8.39529 2.34249 8.87133 2.0216 9.39616 1.80306C9.92098 1.58452 10.4841 1.47272 11.0526 1.47419H18.493C19.0585 1.4723 19.6187 1.58301 20.141 1.79985C20.6632 2.01669 21.1371 2.33533 21.535 2.73719L26.7983 7.99558C27.1983 8.39558 27.5154 8.87067 27.7313 9.39355C27.9472 9.91643 28.0577 10.4768 28.0564 11.0425V18.4927Z" fill="#F9FAFA"/>
</g>
<defs>
<clipPath id="clip0_476_6003">
<rect width="118.393" height="29.5453" fill="white"/>
</clipPath>
</defs>
</svg>
