<svg width="27" height="27" viewBox="0 0 27 27" fill="none" xmlns="http://www.w3.org/2000/svg">
<path d="M19.0257 9.51289C19.0257 6.4224 16.5203 3.91705 13.4298 3.91705C10.3393 3.91705 7.83398 6.4224 7.83398 9.51289C7.83398 12.6034 10.3393 15.1087 13.4298 15.1087C16.5203 15.1087 19.0257 12.6034 19.0257 9.51289Z" stroke="white" stroke-width="2" stroke-linecap="round" stroke-linejoin="round"/>
<path d="M21.264 22.9429C21.264 18.6162 17.7566 15.1088 13.4299 15.1088C9.10318 15.1088 5.5957 18.6162 5.5957 22.9429" stroke="white" stroke-width="2" stroke-linecap="round" stroke-linejoin="round"/>
<path d="M21.8242 12.3109L23.38 10.9968C24.208 10.2973 24.6221 9.94755 24.6221 9.51294C24.6221 9.07835 24.208 8.7286 23.38 8.02912L21.8242 6.71503" stroke="white" stroke-width="2" stroke-linecap="round" stroke-linejoin="round"/>
<path d="M5.0362 12.3109L3.48044 10.9968C2.65234 10.2973 2.23828 9.94755 2.23828 9.51294C2.23828 9.07835 2.65234 8.7286 3.48044 8.02912L5.0362 6.71503" stroke="white" stroke-width="2" stroke-linecap="round" stroke-linejoin="round"/>
</svg>
